<svg width="18" height="16" viewBox="0 0 18 16" fill="none" xmlns="http://www.w3.org/2000/svg">
<path d="M2.76096 14.6231C2.79 14.7983 2.8803 14.9575 3.01578 15.0723C3.15125 15.1871 3.3231 15.2501 3.50068 15.25H14.5002C14.6778 15.2501 14.8496 15.1871 14.9851 15.0723C15.1206 14.9575 15.2109 14.7983 15.2399 14.6231L17.6356 0.25H0.365234L2.76096 14.6231ZM10.5004 4C10.5004 3.80109 10.5795 3.61032 10.7201 3.46967C10.8608 3.32902 11.0515 3.25 11.2504 3.25C11.4493 3.25 11.6401 3.32902 11.7808 3.46967C11.9214 3.61032 12.0004 3.80109 12.0004 4V11.5C12.0004 11.6989 11.9214 11.8897 11.7808 12.0303C11.6401 12.171 11.4493 12.25 11.2504 12.25C11.0515 12.25 10.8608 12.171 10.7201 12.0303C10.5795 11.8897 10.5004 11.6989 10.5004 11.5V4ZM6.00043 4C6.00043 3.80109 6.07945 3.61032 6.2201 3.46967C6.36076 3.32902 6.55152 3.25 6.75043 3.25C6.94935 3.25 7.14011 3.32902 7.28076 3.46967C7.42142 3.61032 7.50043 3.80109 7.50043 4V11.5C7.50043 11.6989 7.42142 11.8897 7.28076 12.0303C7.14011 12.171 6.94935 12.25 6.75043 12.25C6.55152 12.25 6.36076 12.171 6.2201 12.0303C6.07945 11.8897 6.00043 11.6989 6.00043 11.5V4Z" fill="#BDBDBD"/>
</svg>
